<svg width="1600" height="1014" viewBox="0 0 1600 1014" fill="none" xmlns="http://www.w3.org/2000/svg">
  <defs>
    <style>
      .bg{fill:#07111f}.panel{fill:#0d1b2d;stroke:#22324c;stroke-width:1}.card{fill:#111f34;stroke:#293955;stroke-width:1}
      .muted{fill:#aebbd0;font:12px Inter,Arial,sans-serif}.small{fill:#b8c5d9;font:10px Inter,Arial,sans-serif}
      .label{fill:#dce6f5;font:12px Inter,Arial,sans-serif}.title{fill:#fff;font:700 18px Inter,Arial,sans-serif}
      .h1{fill:#f6f8fc;font:700 21px Inter,Arial,sans-serif}.value{fill:#fff;font:700 16px Inter,Arial,sans-serif}
      .nav{fill:#cad6ea;font:13px Inter,Arial,sans-serif}.axis{stroke:#63738b;stroke-width:1;opacity:.55}
      .grid{stroke:#283751;stroke-width:1;opacity:.65}.button{fill:#2b5af1}.btnText{fill:#fff;font:700 12px Inter,Arial,sans-serif}
    </style>
  </defs>

  <rect class="bg" width="1600" height="1014"/>
  <rect x="0" y="0" width="610" height="1014" fill="#0a1b30" opacity=".45"/>
  <rect x="640" y="120" width="500" height="720" fill="#172447" opacity=".22"/>

  <g id="sidebar">
    <rect x="0" y="0" width="214" height="1014" fill="#091525" stroke="#22314a"/>
    <circle cx="42" cy="34" r="18" fill="#2f6df4"/><circle cx="42" cy="34" r="11" fill="#07111f"/>
    <rect x="23" y="34" width="42" height="7" rx="3.5" fill="#d39b45" transform="rotate(-45 23 34)"/>
    <text x="68" y="33" fill="#f4f7fb" font-family="Inter,Arial" font-size="24" font-weight="700">Pensiones</text>
    <text x="69" y="50" fill="#58a6ff" font-family="Inter,Arial" font-size="16" font-weight="600">en Espana</text>
    <line x1="0" y1="68" x2="214" y2="68" stroke="#1d2b44"/>
    <rect x="12" y="80" width="190" height="36" rx="6" fill="#2d5be8"/>
    <text x="54" y="102" class="btnText">Resumen</text>
    <g class="nav">
      <text x="54" y="148">Linea temporal</text><text x="54" y="194">Simulador</text><text x="54" y="240">Escenarios</text>
      <text x="54" y="286">Quien gana / pierde</text><text x="54" y="332">Comparador</text><text x="54" y="378">Foro de propuestas</text>
      <text x="54" y="424">Metodologia</text><text x="54" y="470">Acerca del proyecto</text>
    </g>
    <g fill="#132238" stroke="#9db2d3">
      <circle cx="32" cy="96" r="8"/><circle cx="32" cy="142" r="8"/><circle cx="32" cy="188" r="8"/><circle cx="32" cy="234" r="8"/>
      <circle cx="32" cy="280" r="8"/><circle cx="32" cy="326" r="8"/><circle cx="32" cy="372" r="8"/><circle cx="32" cy="418" r="8"/><circle cx="32" cy="464" r="8"/>
    </g>
    <rect x="12" y="494" width="190" height="138" rx="8" class="panel"/>
    <text x="24" y="518" class="muted">Proximo lanzamiento:</text><text x="24" y="540" fill="#fff" font-family="Inter,Arial" font-size="16" font-weight="700">Vivienda en Espana</text>
    <text x="24" y="562" class="muted">Ayudanos a llegar antes</text><rect x="24" y="574" width="132" height="6" rx="3" fill="#1a2a43"/><rect x="24" y="574" width="97" height="6" rx="3" fill="#55d3c8"/>
    <text x="160" y="578" class="label">62%</text><rect x="24" y="588" width="162" height="30" rx="6" class="button"/><text x="78" y="607" class="btnText">Quiero saber mas</text>
    <rect x="12" y="646" width="190" height="184" rx="8" class="panel"/>
    <text x="24" y="672" fill="#fff" font-family="Inter,Arial" font-size="14" font-weight="700">Recibe actualizaciones</text>
    <text x="24" y="698" class="muted">Te avisaremos cuando haya</text><text x="24" y="716" class="muted">nuevos datos y funcionalidades.</text>
    <rect x="24" y="724" width="162" height="32" rx="5" fill="#0b1626" stroke="#253854"/><text x="34" y="744" fill="#6f819c" font-family="Inter,Arial" font-size="12">Tu correo electronico</text>
    <rect x="24" y="768" width="12" height="12" rx="2" fill="#2a64ff"/><text x="42" y="777" fill="#a9c2ff" font-family="Inter,Arial" font-size="10">Acepto la politica de privacidad</text>
    <rect x="24" y="792" width="162" height="32" rx="6" class="button"/><text x="78" y="812" class="btnText">Suscribirme</text>
    <text x="20" y="992" fill="#a9b7ce" font-family="Inter,Arial" font-size="10">Aviso legal      Politica de privacidad</text>
  </g>

  <g id="header">
    <text x="238" y="33" class="h1">El futuro de nuestras pensiones, en tus decisiones</text>
    <text x="238" y="51" class="muted">Explora, comprende y simula el sistema publico de pensiones espanol</text>
    <rect x="1170" y="17" width="112" height="34" rx="6" fill="#0b1626" stroke="#33435d"/><text x="1204" y="39" class="label">Metodologia</text>
    <rect x="1292" y="17" width="132" height="34" rx="6" fill="#0b1626" stroke="#33435d"/><text x="1324" y="39" class="label">Fuentes de datos</text>
    <rect x="1434" y="17" width="70" height="34" rx="6" fill="#0b1626" stroke="#33435d"/><text x="1464" y="39" class="label">Foro</text>
    <circle cx="1535" cy="35" r="19" fill="#0b1626" stroke="#33435d"/>
  </g>

  <g id="timeline">
    <rect x="230" y="70" width="990" height="72" rx="8" class="panel"/>
    <text x="246" y="96" class="muted">Ano</text><text x="246" y="125" fill="#fff" font-family="Inter,Arial" font-size="25" font-weight="700">2025</text>
    <circle cx="416" cy="106" r="19" fill="#2c5df0"/><text x="405" y="111" class="btnText">Play</text>
    <line x1="462" y1="104" x2="856" y2="104" stroke="#2a64ff" stroke-width="3"/><line x1="856" y1="104" x2="1100" y2="104" stroke="#455268" stroke-width="3"/>
    <circle cx="856" cy="104" r="8" fill="#0d1b2d" stroke="#e9f2ff" stroke-width="2"/>
    <g class="muted"><text x="448" y="128">1950</text><text x="580" y="128">1975</text><text x="714" y="128">2000</text><text x="842" y="128" fill="#fff">2025</text><text x="966" y="128">2050</text><text x="1080" y="128">2070</text></g>
    <rect x="1110" y="88" width="96" height="34" rx="6" fill="#0b1626" stroke="#33435d"/><text x="1128" y="110" class="label">Ir al ano</text>
  </g>

  <g id="population-pyramid">
    <rect x="230" y="156" width="562" height="514" rx="8" class="panel"/>
    <text x="246" y="184" class="title">Piramide poblacional de Espana</text><text x="246" y="202" class="muted">Poblacion por edad, sexo y nacionalidad</text>
    <text x="288" y="238" fill="#fff" font-family="Inter,Arial" font-size="14" font-weight="700">Hombres</text><text x="596" y="238" fill="#fff" font-family="Inter,Arial" font-size="14" font-weight="700">Mujeres</text>
    <rect x="242" y="342" width="538" height="104" fill="#2f8e73" opacity=".28"/>
    <line x1="502" y1="250" x2="502" y2="486" class="axis"/>
    <text x="474" y="230" class="small">Edad</text>
    <g id="pyramid-bars">
      <rect x="408" y="258" width="42" height="7" fill="#7fa7ff"/><rect x="526" y="258" width="36" height="7" fill="#d194f0"/>
      <rect x="395" y="268" width="55" height="7" fill="#6e9bff"/><rect x="526" y="268" width="48" height="7" fill="#c381eb"/>
      <rect x="380" y="278" width="70" height="7" fill="#5d8fff"/><rect x="526" y="278" width="62" height="7" fill="#b76ee8"/>
      <rect x="362" y="288" width="88" height="7" fill="#6fabea"/><rect x="526" y="288" width="78" height="7" fill="#caa8e9"/>
      <rect x="338" y="298" width="112" height="7" fill="#7fa7ff"/><rect x="526" y="298" width="102" height="7" fill="#d194f0"/>
      <rect x="300" y="308" width="150" height="7" fill="#6e9bff"/><rect x="526" y="308" width="142" height="7" fill="#c381eb"/>
      <rect x="273" y="318" width="177" height="7" fill="#55c6cf"/><rect x="526" y="318" width="176" height="7" fill="#8fd0c2"/>
      <rect x="262" y="328" width="188" height="7" fill="#4cc0c8"/><rect x="526" y="328" width="190" height="7" fill="#9bd6c9"/>
      <rect x="282" y="338" width="168" height="7" fill="#55c6cf"/><rect x="526" y="338" width="184" height="7" fill="#8fd0c2"/>
      <rect x="312" y="348" width="138" height="7" fill="#4cc0c8"/><rect x="526" y="348" width="156" height="7" fill="#9bd6c9"/>
      <rect x="345" y="358" width="105" height="7" fill="#55c6cf"/><rect x="526" y="358" width="125" height="7" fill="#8fd0c2"/>
      <rect x="370" y="368" width="80" height="7" fill="#4cc0c8"/><rect x="526" y="368" width="96" height="7" fill="#9bd6c9"/>
      <rect x="393" y="378" width="57" height="7" fill="#55c6cf"/><rect x="526" y="378" width="74" height="7" fill="#8fd0c2"/>
      <rect x="410" y="388" width="40" height="7" fill="#4cc0c8"/><rect x="526" y="388" width="55" height="7" fill="#9bd6c9"/>
      <rect x="422" y="398" width="28" height="7" fill="#55c6cf"/><rect x="526" y="398" width="40" height="7" fill="#8fd0c2"/>
      <rect x="432" y="408" width="18" height="7" fill="#4cc0c8"/><rect x="526" y="408" width="28" height="7" fill="#9bd6c9"/>
      <rect x="438" y="418" width="12" height="7" fill="#7fa7ff"/><rect x="526" y="418" width="18" height="7" fill="#d194f0"/>
      <rect x="442" y="428" width="8" height="7" fill="#6e9bff"/><rect x="526" y="428" width="12" height="7" fill="#c381eb"/>
      <rect x="445" y="438" width="5" height="7" fill="#5d8fff"/><rect x="526" y="438" width="8" height="7" fill="#b76ee8"/>
    </g>
    <line x1="276" y1="484" x2="448" y2="484" class="axis"/><line x1="526" y1="484" x2="706" y2="484" class="axis"/>
    <text x="264" y="506" class="muted">500              250              0</text><text x="522" y="506" class="muted">0              250              500</text>
    <text x="314" y="526" class="small">Poblacion (miles)</text><text x="566" y="526" class="small">Poblacion (miles)</text>
    <text x="712" y="310" class="small">Fuera de edad de trabajar</text><text x="712" y="392" class="small">En edad de trabajar</text><text x="710" y="468" class="small">Fuera de edad de trabajar</text>
    <g class="small"><rect x="246" y="536" width="12" height="12" fill="#4fc6d0"/><text x="266" y="546">Hombre espanol</text><rect x="410" y="536" width="12" height="12" fill="#5c8eff"/><text x="430" y="546">Hombre espanol fuera</text><rect x="512" y="536" width="12" height="12" fill="#a76bea"/><text x="532" y="546">Mujer espanol</text><rect x="626" y="536" width="12" height="12" fill="#c37fc5"/><text x="646" y="546">Mujer espanol fuera</text></g>
    <line x1="240" y1="620" x2="780" y2="620" stroke="#21304a"/><text x="268" y="650" class="small">Fuente: INE - Cifras de poblacion a 1 de enero de 2025 y Proyecciones de poblacion 2022-2070</text>
    <rect x="686" y="638" width="90" height="28" rx="5" fill="#101f35" stroke="#30425e"/><text x="700" y="656" class="small">Ver metodologia</text>
  </g>

  <g id="kpis">
    <rect x="804" y="156" width="416" height="514" rx="8" class="panel"/>
    <text x="820" y="184" class="title">Indicadores clave (2025)</text>
    <g id="kpi-cards">
      <rect x="818" y="210" width="188" height="76" rx="6" class="card"/><text x="866" y="232" class="small">Ingresos por cotizaciones</text><text x="866" y="254" class="value">129.408 ME</text><text x="866" y="272" fill="#4cd38a" font-family="Inter,Arial" font-size="10">1,1% del PIB</text>
      <rect x="1018" y="210" width="188" height="76" rx="6" class="card"/><text x="1066" y="232" class="small">Gasto en pensiones</text><text x="1066" y="254" class="value">190.607 ME</text><text x="1066" y="272" fill="#ff635f" font-family="Inter,Arial" font-size="10">12,6% del PIB</text>
      <rect x="818" y="294" width="188" height="76" rx="6" class="card"/><text x="866" y="316" class="small">Deficit del sistema</text><text x="866" y="338" class="value">-61.199 ME</text><text x="866" y="356" fill="#ff635f" font-family="Inter,Arial" font-size="10">-4,1% del PIB</text>
      <rect x="1018" y="294" width="188" height="76" rx="6" class="card"/><text x="1066" y="316" class="small">Deuda publica</text><text x="1066" y="338" class="value">1.593.623 ME</text><text x="1066" y="356" fill="#f4b329" font-family="Inter,Arial" font-size="10">105,4% del PIB</text>
      <rect x="818" y="378" width="188" height="76" rx="6" class="card"/><text x="866" y="400" class="small">Gasto en pensiones /</text><text x="866" y="414" class="small">Presupuesto del Estado</text><text x="866" y="438" class="value">43,2%</text>
      <rect x="1018" y="378" width="188" height="76" rx="6" class="card"/><text x="1066" y="400" class="small">Relacion cotizantes /</text><text x="1066" y="414" class="small">pensionistas</text><text x="1066" y="438" class="value">2,15</text>
      <rect x="818" y="462" width="188" height="76" rx="6" class="card"/><text x="866" y="484" class="small">Hucha de las pensiones</text><text x="866" y="506" class="value">6.815 ME</text><text x="866" y="524" fill="#f3a600" font-family="Inter,Arial" font-size="10">0,4% del PIB</text>
      <rect x="1018" y="462" width="188" height="76" rx="6" class="card"/><text x="1066" y="484" class="small">Edad efectiva de jubilacion</text><text x="1066" y="506" class="value">64,2 anos</text><text x="1066" y="524" class="small">Edad legal: 66,0</text>
      <rect x="818" y="546" width="188" height="76" rx="6" class="card"/><text x="866" y="568" class="small">Esperanza de vida (65 anos)</text><text x="866" y="590" class="value">22,6 anos</text><text x="866" y="608" class="small">Total poblacion</text>
      <rect x="1018" y="546" width="188" height="76" rx="6" class="card"/><text x="1066" y="568" class="small">Tasa de reemplazo</text><text x="1066" y="590" class="value">78,3%</text><text x="1066" y="608" class="small">Pension inicial / ultimo salario</text>
    </g>
    <rect x="928" y="638" width="160" height="28" rx="5" fill="#101f35" stroke="#30425e"/><text x="950" y="656" class="small">Ver todos los indicadores</text>
  </g>

  <g id="right-rail">
    <rect x="1234" y="72" width="330" height="452" rx="8" class="panel"/>
    <text x="1252" y="102" class="title">Simulador de reformas</text><text x="1252" y="124" class="small">Anade medidas y descubre su impacto futuro</text>
    <text x="1274" y="160" class="label">Medidas activas</text><circle cx="1372" cy="155" r="9" fill="#2c5df0"/><text x="1369" y="159" class="small" fill="#fff">5</text><text x="1422" y="160" class="muted">Anadir medida</text>
    <line x1="1250" y1="174" x2="1400" y2="174" stroke="#2d60ff" stroke-width="3"/>
    <g class="label">
      <rect x="1248" y="188" width="300" height="46" rx="6" fill="#142238" stroke="#243652"/><text x="1304" y="207">Edad legal de jubilacion</text><text x="1304" y="224">68 anos</text><text x="1444" y="224" class="small">Desde 2040</text>
      <rect x="1248" y="244" width="300" height="46" rx="6" fill="#142238" stroke="#243652"/><text x="1304" y="263">Cotizaciones trabajador</text><text x="1304" y="280">+2 p.p.</text><text x="1444" y="280" class="small">Desde 2035</text>
      <rect x="1248" y="300" width="300" height="46" rx="6" fill="#142238" stroke="#243652"/><text x="1304" y="319">Cotizaciones empresa</text><text x="1304" y="336">+1 p.p.</text><text x="1444" y="336" class="small">Desde 2035</text>
      <rect x="1248" y="356" width="300" height="46" rx="6" fill="#142238" stroke="#243652"/><text x="1304" y="375">Inmigracion neta anual</text><text x="1304" y="392">+100.000 personas</text><text x="1444" y="392" class="small">Desde 2030</text>
      <rect x="1248" y="412" width="300" height="46" rx="6" fill="#142238" stroke="#243652"/><text x="1304" y="439">Eliminar paga extra</text><text x="1444" y="439" class="small">A partir de 2045</text>
    </g>
    <rect x="1248" y="462" width="300" height="32" rx="5" class="button"/><text x="1336" y="482" class="btnText">Ver impacto en el futuro</text>

    <rect x="1234" y="504" width="330" height="224" rx="8" class="panel"/><text x="1252" y="538" fill="#fff" font-family="Inter,Arial" font-size="14" font-weight="700">Comparar con escenario base</text>
    <g id="mini-chart"><line x1="1286" y1="570" x2="1524" y2="570" class="grid"/><line x1="1286" y1="598" x2="1524" y2="598" class="grid"/><line x1="1286" y1="626" x2="1524" y2="626" class="grid"/>
      <polyline points="1288,564 1342,588 1396,615 1450,620 1506,604 1528,602" fill="none" stroke="#57d1d5" stroke-width="2"/>
      <polyline points="1288,562 1342,576 1396,604 1450,616 1506,626 1528,632" fill="none" stroke="#b65af3" stroke-width="2"/>
    </g>
    <rect x="1248" y="696" width="300" height="30" rx="5" fill="#101f35" stroke="#30425e"/><text x="1333" y="715" class="label">Ir al comparador completo</text>

    <rect x="1234" y="748" width="330" height="238" rx="8" class="panel"/><text x="1252" y="782" class="title">Quien gana y quien pierde?</text><text x="1252" y="804" class="small">Impacto acumulado 2025-2070 vs. escenario base</text>
    <g class="small">
      <text x="1280" y="836">Jovenes actuales</text><rect x="1392" y="824" width="112" height="12" rx="2" fill="#3da65d"/><text x="1510" y="836" class="label">+3,2%</text>
      <text x="1242" y="862">Trabajadores 30-50 anos</text><rect x="1392" y="850" width="63" height="12" rx="2" fill="#3da65d"/><text x="1510" y="862" class="label">+1,8%</text>
      <text x="1274" y="888">Nuevos jubilados</text><rect x="1392" y="876" width="14" height="12" rx="2" fill="#e45c68"/><text x="1510" y="888" class="label">-0,4%</text>
      <text x="1274" y="914">Jubilados actuales</text><rect x="1392" y="902" width="74" height="12" rx="2" fill="#e45c68"/><text x="1510" y="914" class="label">-2,1%</text>
      <text x="1308" y="940">Rentas bajas</text><rect x="1392" y="928" width="80" height="12" rx="2" fill="#3da65d"/><text x="1510" y="940" class="label">+2,3%</text>
    </g>
    <rect x="1248" y="958" width="300" height="30" rx="5" fill="#101f35" stroke="#30425e"/><text x="1340" y="977" class="label">Ver analisis detallado</text>
  </g>

  <g id="historical-chart">
    <rect x="230" y="686" width="990" height="328" rx="8" class="panel"/>
    <text x="246" y="714" class="title">Evolucion historica de indicadores clave</text>
    <g class="small"><rect x="274" y="734" width="10" height="10" fill="#44d27d"/><text x="290" y="742">Ingresos por cotizaciones (reales)</text><rect x="468" y="734" width="10" height="10" fill="#ff665f"/><text x="486" y="742">Gasto en pensiones (reales)</text><rect x="642" y="734" width="10" height="10" fill="none" stroke="#f3bf28"/><text x="660" y="742">Deficit del sistema (reales)</text><rect x="806" y="734" width="10" height="10" fill="#bc5af5"/><text x="824" y="742">Gasto pensiones / PIB (%)</text></g>
    <text x="246" y="768" class="small">Miles de millones EUR (reales de 2025)</text><text x="1160" y="768" class="small">% del PIB</text>
    <line x1="274" y1="790" x2="1150" y2="790" class="grid"/><line x1="274" y1="820" x2="1150" y2="820" class="grid"/><line x1="274" y1="850" x2="1150" y2="850" class="grid"/><line x1="274" y1="880" x2="1150" y2="880" class="grid"/><line x1="274" y1="910" x2="1150" y2="910" class="grid"/>
    <polyline points="274,902 346,896 418,878 490,848 562,824 634,812 706,790 778,778 850,760 922,742 994,730 1066,728 1138,726" fill="none" stroke="#44d27d" stroke-width="2"/>
    <polyline points="274,904 346,896 418,872 490,830 562,780 634,766 706,748 778,730 850,710 922,700 994,686 1066,682 1138,674" fill="none" stroke="#ff665f" stroke-width="2"/>
    <polyline points="274,902 346,896 418,882 490,896 562,914 634,928 706,920 778,926 850,916 922,914 994,920 1066,926 1138,936" fill="none" stroke="#f3bf28" stroke-width="2"/>
    <polyline points="274,904 346,898 418,886 490,874 562,860 634,850 706,842 778,828 850,812 922,822 994,838 1066,852 1138,862" fill="none" stroke="#bc5af5" stroke-width="2"/>
    <line x1="872" y1="724" x2="872" y2="936" stroke="#7ba8ff"/><rect x="858" y="704" width="34" height="20" rx="4" fill="#17345c" stroke="#2f74d9"/><text x="864" y="718" class="small">2025</text>
    <g class="small"><text x="270" y="956">1950</text><text x="342" y="956">1960</text><text x="414" y="956">1970</text><text x="486" y="956">1980</text><text x="558" y="956">1990</text><text x="630" y="956">2000</text><text x="702" y="956">2010</text><text x="774" y="956">2020</text><text x="846" y="956">2030</text><text x="918" y="956">2040</text><text x="990" y="956">2050</text><text x="1062" y="956">2060</text><text x="1134" y="956">2070</text></g>
    <text x="246" y="996" class="small">Fuente: Seguridad Social, AIReF, Banco de Espana, INE, IGAE</text>
    <rect x="962" y="980" width="184" height="28" rx="5" fill="#101f35" stroke="#30425e"/><text x="990" y="998" class="small">Ver todas las series historicas</text>
  </g>
</svg>
